M48
;Layer_Color=6321
;FILE_FORMAT=2:5
INCH,LZ
;TYPE=PLATED
T1F00S00C0.01575
T2F00S00C0.02800
T3F00S00C0.03346
T4F00S00C0.03937
T5F00S00C0.04331
T6F00S00C0.07874
T7F00S00C0.12205
%
T01
X0263323Y0193087
X0268441
X0273559
X0278677
Y0198205
Y0203323
Y0208441
Y0213559
Y0218677
Y0223795
Y0228913
X0273559
X0268441
Y0223795
X0273559
Y0218677
X0268441
Y0213559
X0273559
Y0208441
X0268441
Y0203323
X0273559
Y0198205
X0268441
X0263323
Y0203323
Y0208441
Y0213559
Y0218677
Y0223795
Y0228913
T02
X022Y0104
X024
X026
X028
X03
Y012
X029Y014
X026
X027Y012
X0206Y0148
X032Y015
Y013
Y0104
X034
X036
X038
X04
X042
Y013
X043Y015
X0454Y0154
Y0134
X036Y013
X035Y014
X0364Y016
X038Y0166
Y021
X036
X034
X032Y0177
Y0171
X0314
Y0177
Y0245
Y0251
X032
Y0245
X033Y028
X036
X037Y026
X038Y0296
X0454Y0294
Y0274
Y0254
Y0234
Y0214
Y0194
X045Y018
X0454Y0174
X042Y022
X04Y021
X043Y027
X0298
X0302Y0251
X0308
Y0245
X0302
X03028Y02335
X029Y025
X027
Y027
Y03
X024
Y027
X02383Y02456
X02355Y02245
X02415Y02205
X02385Y02027
X02461Y01982
X02219Y02129
X0206Y0208
Y0228
X02165Y0234
X0206Y0248
Y0268
Y0288
Y0188
Y0168
X027Y016
X028Y018
X0302Y0177
X0308
Y0171
X0302
X03Y03
Y0318
X028
X026
X024
X022
X032
X034
X036
X038
X04
X042
T03
X035Y0174
Y0194
Y0227
Y0247
T04
X02306Y01778
X022Y0272
Y0286
Y03
T05
X0442Y0148
Y0168
Y0201
Y0221
Y0252
Y0272
T06
X0230315Y0123819
Y0151378
T07
X0208661Y0110236
X0444882
Y0311024
X0208661
M30
